<svg xmlns="http://www.w3.org/2000/svg" viewBox="0 0 512 512">
  <defs>
    <linearGradient id="bg" x1="0" y1="0" x2="1" y2="1"><stop stop-color="#07152d"/><stop offset="1" stop-color="#201a3d"/></linearGradient>
    <radialGradient id="glow"><stop stop-color="#f6c1b8"/><stop offset="1" stop-color="#f39aaa"/></radialGradient>
  </defs>
  <rect width="512" height="512" rx="118" fill="url(#bg)"/>
  <circle cx="390" cy="118" r="92" fill="#f39aaa" opacity=".13"/>
  <circle cx="122" cy="392" r="110" fill="#9db6ff" opacity=".11"/>
  <path d="M122 279C164 176 294 154 390 240" fill="none" stroke="#f6c1b8" stroke-width="15" stroke-linecap="round" stroke-dasharray="4 26"/>
  <circle cx="122" cy="279" r="20" fill="url(#glow)" stroke="#fff" stroke-width="8"/>
  <circle cx="390" cy="240" r="20" fill="#9db6ff" stroke="#fff" stroke-width="8"/>
  <path d="M256 350c-71-46-107-83-107-129 0-38 29-66 65-66 22 0 37 10 42 27 6-17 21-27 43-27 36 0 65 28 65 66 0 46-36 83-108 129Z" fill="#fff4f1" opacity=".96"/>
</svg>
